<svg width="244" height="124" viewBox="0 0 244 124" fill="none" xmlns="http://www.w3.org/2000/svg">
<path d="M0.4 85.2V99.92H40.72V122H56.72V99.92H72.08V85.2H56.72V1.99999H32.56L0.4 85.2ZM13.68 85.2L40.72 14.48V85.2H13.68ZM121.125 123.6C142.245 123.6 154.885 110.64 154.885 84.24V39.76C154.885 13.52 142.245 0.399992 121.125 0.399992C100.165 0.399992 87.365 13.52 87.365 39.76V84.24C87.365 110.64 100.165 123.6 121.125 123.6ZM121.125 108.88C109.925 108.88 103.365 102.32 103.365 84.24V39.76C103.365 21.84 110.085 15.12 121.125 15.12C132.165 15.12 138.885 21.84 138.885 39.76V84.24C138.885 102.32 132.165 108.88 121.125 108.88ZM171.494 85.2V99.92H211.814V122H227.814V99.92H243.174V85.2H227.814V1.99999H203.654L171.494 85.2ZM184.774 85.2L211.814 14.48V85.2H184.774Z" fill="white"/>
</svg>
